<svg xmlns="http://www.w3.org/2000/svg" style="display:none">
  <symbol id="icon-door" viewBox="0 0 64 64" fill="none" stroke="currentColor" stroke-width="2.5" stroke-linecap="round" stroke-linejoin="round">
    <rect x="14" y="8" width="36" height="48" rx="2"/>
    <circle cx="42" cy="32" r="1.5" fill="currentColor"/>
    <path d="M14 20 L50 20"/>
    <path d="M20 8 L20 4 M30 8 L30 4 M40 8 L40 4"/>
  </symbol>
  <symbol id="icon-feeder" viewBox="0 0 64 64" fill="none" stroke="currentColor" stroke-width="2.5" stroke-linecap="round" stroke-linejoin="round">
    <path d="M18 18 L46 18 L42 52 L22 52 Z"/>
    <path d="M14 18 L50 18 L50 14 L14 14 Z"/>
    <circle cx="32" cy="32" r="3"/>
    <path d="M26 40 L38 40"/>
  </symbol>
  <symbol id="icon-water" viewBox="0 0 64 64" fill="none" stroke="currentColor" stroke-width="2.5" stroke-linecap="round" stroke-linejoin="round">
    <path d="M32 8 C32 8 18 26 18 38 C18 47 24 54 32 54 C40 54 46 47 46 38 C46 26 32 8 32 8 Z"/>
    <path d="M26 38 C26 42 28 45 32 45"/>
  </symbol>
  <symbol id="icon-coop" viewBox="0 0 64 64" fill="none" stroke="currentColor" stroke-width="2.5" stroke-linecap="round" stroke-linejoin="round">
    <path d="M8 56 L8 28 L32 10 L56 28 L56 56 Z"/>
    <rect x="24" y="36" width="16" height="20" rx="1"/>
    <circle cx="18" cy="32" r="4"/>
    <line x1="18" y1="28" x2="18" y2="36"/>
    <line x1="14" y1="32" x2="22" y2="32"/>
  </symbol>
  <symbol id="icon-heat" viewBox="0 0 64 64" fill="none" stroke="currentColor" stroke-width="2.5" stroke-linecap="round" stroke-linejoin="round">
    <rect x="10" y="20" width="44" height="24" rx="3"/>
    <path d="M20 20 L20 12 M32 20 L32 12 M44 20 L44 12"/>
    <path d="M18 30 L46 30 M18 36 L46 36"/>
    <path d="M22 48 L24 54 M32 48 L34 54 M42 48 L44 54"/>
  </symbol>
  <symbol id="icon-hen" viewBox="0 0 64 64" fill="none" stroke="currentColor" stroke-width="2.5" stroke-linecap="round" stroke-linejoin="round">
    <ellipse cx="30" cy="36" rx="20" ry="14"/>
    <circle cx="48" cy="24" r="7"/>
    <circle cx="51" cy="22" r="1" fill="currentColor"/>
    <path d="M55 24 L60 22 L55 26"/>
    <path d="M43 15 C44 11 47 12 46 15 C47 11 50 12 49 15"/>
    <path d="M10 32 C2 18 8 14 14 26"/>
    <line x1="26" y1="50" x2="24" y2="58"/>
    <line x1="34" y1="50" x2="36" y2="58"/>
  </symbol>
</svg>
